<svg viewBox="0 0 24 24" xmlns="http://www.w3.org/2000/svg"><path d="m19.99121 2.002a.99943.99943 0 0 0 -1 1v.63672a9.03617 9.03617 0 0 1 -7 3.36328h-6a3.00328 3.00328 0 0 0 -3 3v2a3.00328 3.00328 0 0 0 3 3h.48379l-2.40273 5.6064a.99931.99931 0 0 0 .91894 1.3936h4a.99857.99857 0 0 0 .91895-.60644l2.72375-6.35556a9.02805 9.02805 0 0 1 6.3573 3.32507v.63693a1 1 0 0 0 2 0v-16a.99942.99942 0 0 0 -1-1zm-14 11a1.00067 1.00067 0 0 1 -1-1v-2a1.00068 1.00068 0 0 1 1-1h1v4zm2.34082 7h-1.82422l2.14258-5h1.82422zm10.65918-4.4782a11.052 11.052 0 0 0 -7-2.52185h-3v-4h3a11.05281 11.05281 0 0 0 7-2.52234z"/></svg>