<svg viewBox="0 0 1042.204 1066.697" xmlns="http://www.w3.org/2000/svg"><path d="M1042.204 1045.333H0v-68.267h1042.204zm-989.866-1024h285.355v1024H52.338zM269.426 89.6h-148.82v887.467h148.82zm.455 192.512H512v763.22H269.88zm173.853 68.266H338.147v626.688h105.586zm260.324-285.81h285.355v980.765H704.057zm217.088 68.267h-148.82v844.23h148.82zm-477.412 18.66h329.045v893.838H443.733zm260.78 68.266H512v757.306h192.512zM477.866 828.246H304.015v-68.267h173.852zm173.397 43.236h-86.926v-68.266h86.926zm-347.25 0H86.47v-68.266h217.544zm0-608.028H86.47v-68.267h217.544z"/></svg>