<svg height="32" viewBox="0 0 32 32" width="32" xmlns="http://www.w3.org/2000/svg"><path d="m16 19a6.9908 6.9908 0 0 1 -5.833-3.1287l1.666-1.1074a5.0007 5.0007 0 0 0 8.334 0l1.666 1.1074a6.9908 6.9908 0 0 1 -5.833 3.1287z"/><path d="m20 8a2 2 0 1 0 2 2 1.9806 1.9806 0 0 0 -2-2z"/><path d="m12 8a2 2 0 1 0 2 2 1.9806 1.9806 0 0 0 -2-2z"/><path d="m17.7358 30-1.7358-1 4-7h6a1.9966 1.9966 0 0 0 2-2v-14a1.9966 1.9966 0 0 0 -2-2h-20a1.9966 1.9966 0 0 0 -2 2v14a1.9966 1.9966 0 0 0 2 2h9v2h-9a3.9993 3.9993 0 0 1 -4-4v-14a3.9988 3.9988 0 0 1 4-4h20a3.9988 3.9988 0 0 1 4 4v14a3.9993 3.9993 0 0 1 -4 4h-4.8354z"/><path d="m0 0h32v32h-32z" fill="none"/></svg>