<svg fill="none" height="24" viewBox="0 0 24 24" width="24" xmlns="http://www.w3.org/2000/svg"><g stroke-linecap="round" stroke-linejoin="round" stroke-width="1.5"><path d="m22 12c0-5.52-4.48-10-10-10s-10 4.48-10 10 4.48 10 10 10"/><path d="m7.99961 3h1c-1.95 5.84-1.95 12.16 0 18h-1"/><path d="m15 3c.97 2.92 1.46 5.96 1.46 9"/><path d="m3 16v-1c2.92.97 5.96 1.46 9 1.46"/><path d="m21 9.00006c-2.92-.97-5.96-1.46002-9-1.46002"/><path d="m3 9.00006c1.59-.53 3.21001-.90997 4.85001-1.15997"/><path d="m18.2 21.4c1.7673 0 3.2-1.4327 3.2-3.2s-1.4327-3.2-3.2-3.2-3.2 1.4327-3.2 3.2 1.4327 3.2 3.2 3.2z"/><path d="m22 22-1-1"/></g></svg>