<svg viewBox="0 0 1033.452 1054.968" xmlns="http://www.w3.org/2000/svg"><path d="M52.213 719.453h239.91v325.88H52.212zm172.392 67.517H119.73v190.847h104.875zM741.33 375.12h239.91v670.213H741.33zm172.393 67.516H808.847v535.18h104.876zM396.997 547.06h239.91v498.273h-239.91zM569.39 614.58H464.512v363.24H569.39zm464.062 430.755H0v-67.516h1033.452zm-495.12-645.908H387.543V331.91H538.33c16.895-.027 30.583-13.715 30.608-30.606v-.227-.225c0-16.904-13.702-30.607-30.606-30.607h-45.125c-54.317 0-98.35-44.032-98.35-98.35 0-54.276 43.97-98.284 98.23-98.348h151.02v67.516H493.453c-16.997.228-30.693 14.035-30.742 31.053v.005c.026 16.895 13.714 30.583 30.605 30.608h45.013c54.317 0 98.35 44.032 98.35 98.35s-44.033 98.348-98.35 98.348zm12.152-292.12h-67.516V21.332h67.516zm0 344.783h-67.516v-86.42h67.516z"/></svg>